<svg width="504" height="240" viewBox="0 0 504 240" xmlns="http://www.w3.org/2000/svg"><g id="Page-1" stroke="none" stroke-width="1" fill="none" fill-rule="evenodd"><g id="Brick-House-Logo-Stack" fill-rule="nonzero"><circle id="Oval" fill="#050606" cx="154.12" cy="183.5" r="55.52"/><path d="M270.68 129.07v50.87h-4.91v-50.87h-44.42v66.45c.507 23.661 19.834 42.577 43.5 42.577s42.993-18.916 43.5-42.577v-66.45h-37.67zm202.05 61.95V180.4h14.76v-17.65h-17.24v-4.91h32.92v-28.77h-90.73v108.86H504v-46.91zm-91.59-23.66l16.52-16.52A37.39 37.39 0 10339.15 194l-16.25 16.22c4.489 16.799 19.599 28.566 36.985 28.802 17.387.237 32.812-11.114 37.756-27.785 4.944-16.67-1.797-34.596-16.501-43.877z" id="Path" fill="#050606"/><path d="M0 129.07v108.86h21.91v-28.25h9.68v28.25h54V129.07H0zm71.5 38.86H59.57v-21.19H71.5v21.19z" id="Shape" fill="#82331C"/><path d="M72.18 52.37a28.51 28.51 0 00-18.41-50.3H0v108.86h58.71c14.375.019 26.853-9.902 30.076-23.911C92.008 73.01 85.118 58.634 72.18 52.37zM187.4 34.93c0-18.148-14.712-32.86-32.86-32.86H104v108.86h83.4l-19.82-45.84a32.859 32.859 0 0019.82-30.16z" id="Path" fill="#050606"/><path id="Rectangle" fill="#050606" d="M202.99 2.07h39.54v108.86h-39.54z"/><path id="Path" fill="#050606" d="M445.83 54.71l26.45-52.64h-83.96v108.86h88.95zm-96.34 3.35V50.2h19.23C365.424 20.385 339.11-1.465 309.197.775c-29.912 2.24-52.679 27.767-51.497 57.74 1.183 29.973 25.889 53.627 55.885 53.505 29.996-.123 54.508-23.978 55.445-53.96h-19.54z"/></g></g></svg>