<svg width="720" height="78" viewBox="0 0 720 78" xmlns="http://www.w3.org/2000/svg"><g id="Page-1" stroke="none" stroke-width="1" fill="none" fill-rule="evenodd"><g id="brick-house-logo-banner" fill-rule="nonzero"><circle id="Oval" fill="#050606" cx="477.12" cy="39" r="38.54"/><path d="M558 1.21v35.32h-3.41V1.21h-30.8v46.13c0 16.679 13.521 30.2 30.2 30.2s30.2-13.521 30.2-30.2V1.21H558zm140.29 43.01v-7.38h10.25V24.6h-11.97v-3.41h22.85V1.21h-62.98v75.57H720V44.22zm-63.58-16.43l11.47-11.46a26 26 0 10-40.62 29.93l-11.28 11.28a27 27 0 1040.43-29.75z" id="Path" fill="#050606"/><path d="M370.13 1.21v75.58h15.21V57.17h6.72v19.62h37.5V1.21h-59.43zm49.63 27h-8.28V13.48h8.28v14.73z" id="Shape" fill="#82331C"/><path d="M50.11 36.13A19.8 19.8 0 0037.33 1.21H0v75.58h40.76a21.4 21.4 0 009.35-40.66zM130.09 24c0-12.6-10.21-22.814-22.81-22.82H72.22v75.61h57.87L116.33 45a22.83 22.83 0 0013.76-21z" id="Path" fill="#050606"/><path id="Rectangle" fill="#050606" d="M140.92 1.21h27.45v75.57h-27.45z"/><path id="Path" fill="#050606" d="M309.49 37.76l18.36-36.55h-58.28v75.57h61.74zm-66.88 2.32v-5.45H256C253.732 13.911 235.463-1.29 214.677.247c-20.785 1.536-36.621 19.258-35.818 40.084.802 20.827 17.954 37.278 38.797 37.21 20.842-.068 37.887-16.63 38.554-37.461h-13.6z"/></g></g></svg>