<?xml version="1.0" encoding="UTF-8"?>
<svg width="504px" height="240px" viewBox="0 0 504 240" version="1.1" xmlns="http://www.w3.org/2000/svg" xmlns:xlink="http://www.w3.org/1999/xlink">
    <title>Brick-House-Logo-Stack</title>
    <g id="Page-1" stroke="none" stroke-width="1" fill="none" fill-rule="evenodd">
        <g id="Brick-House-Logo-Stack" fill-rule="nonzero">
            <circle id="Oval" fill="#050606" cx="154.12" cy="183.5" r="55.52"></circle>
            <path d="M270.68,129.07 L270.68,179.94 L265.77,179.94 L265.77,129.07 L221.35,129.07 L221.35,195.52 C221.857374,219.180968 241.183593,238.097208 264.85,238.097208 C288.516407,238.097208 307.842626,219.180968 308.35,195.52 L308.35,129.07 L270.68,129.07 Z" id="Path" fill="#050606"></path>
            <polygon id="Path" fill="#050606" points="472.73 191.02 472.73 180.4 487.49 180.4 487.49 162.75 470.25 162.75 470.25 157.84 503.17 157.84 503.17 129.07 451.99 129.07 412.44 129.07 412.44 156.74 412.44 157.84 412.44 162.75 412.44 174.71 412.44 178.72 412.44 180.4 412.44 191.02 412.44 196.69 412.44 237.93 451.99 237.93 504 237.93 504 191.02"></polygon>
            <path d="M381.14,167.36 L397.66,150.84 C391.637442,136.575474 377.445795,127.498823 361.970568,128.013859 C346.495341,128.528896 332.938596,138.529051 327.877801,153.162447 C322.817005,167.795842 327.299314,184.034602 339.15,194 L322.9,210.22 C327.388886,227.018968 342.498627,238.785635 359.885387,239.022265 C377.272147,239.258894 392.696514,227.907789 397.640913,211.237205 C402.585311,194.566622 395.844149,176.641349 381.14,167.36 Z" id="Path" fill="#050606"></path>
            <path d="M0,129.07 L0,237.93 L21.91,237.93 L21.91,209.68 L31.59,209.68 L31.59,237.93 L85.59,237.93 L85.59,129.07 L0,129.07 Z M71.5,167.93 L59.57,167.93 L59.57,146.74 L71.5,146.74 L71.5,167.93 Z" id="Shape" fill="#82331C"></path>
            <path d="M72.18,52.37 C81.3331014,44.6471223 84.6840829,32.0272233 80.5678951,20.7809305 C76.4517072,9.53463764 65.7458923,2.05958196 53.77,2.06998912 L0,2.06998912 L0,110.930026 L58.71,110.930026 C73.0846856,110.948683 85.5633859,101.027716 88.7857139,87.0188425 C92.0080419,73.0099689 85.118173,58.633834 72.18,52.37 Z" id="Path" fill="#050606"></path>
            <path d="M187.4,34.93 C187.4,16.7819231 172.688077,2.07 154.54,2.07 L104,2.07 L104,110.93 L187.4,110.93 L167.58,65.09 C179.610192,59.8889386 187.4,48.0363557 187.4,34.93 L187.4,34.93 Z" id="Path" fill="#050606"></path>
            <rect id="Rectangle" fill="#050606" x="202.99" y="2.07" width="39.54" height="108.86"></rect>
            <polygon id="Path" fill="#050606" points="445.83 54.71 472.28 2.07 426.26 2.07 388.32 2.07 388.32 39.93 388.32 73.06 388.32 110.93 426.26 110.93 477.27 110.93"></polygon>
            <path d="M349.49,58.06 L349.49,50.2 L368.72,50.2 C365.42436,20.3851655 339.109877,-1.4650964 309.197226,0.775194974 C279.284575,3.01548635 256.518321,28.5416228 257.700467,58.5147462 C258.882613,88.4878697 283.588535,112.141694 313.584711,112.019643 C343.580887,111.896644 368.092751,88.0417805 369.03,58.06 L349.49,58.06 Z" id="Path" fill="#050606"></path>
        </g>
    </g>
</svg>