<?xml version="1.0" encoding="UTF-8"?>
<svg width="720px" height="78px" viewBox="0 0 720 78" version="1.1" xmlns="http://www.w3.org/2000/svg" xmlns:xlink="http://www.w3.org/1999/xlink">
    <title>brick-house-logo-banner</title>
    <g id="Page-1" stroke="none" stroke-width="1" fill="none" fill-rule="evenodd">
        <g id="brick-house-logo-banner" fill-rule="nonzero">
            <circle id="Oval" fill="#050606" cx="477.12" cy="39" r="38.54"></circle>
            <path d="M558,1.21 L558,36.53 L554.59,36.53 L554.59,1.21 L523.79,1.21 L523.79,47.34 C523.79,64.0189994 537.311001,77.54 553.99,77.54 C570.668999,77.54 584.19,64.0189994 584.19,47.34 L584.19,1.21 L558,1.21 Z" id="Path" fill="#050606"></path>
            <polygon id="Path" fill="#050606" points="698.29 44.22 698.29 36.84 708.54 36.84 708.54 24.6 696.57 24.6 696.57 21.19 719.42 21.19 719.42 1.21 683.89 1.21 656.44 1.21 656.44 20.42 656.44 21.19 656.44 24.6 656.44 32.9 656.44 35.68 656.44 36.84 656.44 44.22 656.44 48.15 656.44 76.78 683.89 76.78 720 76.78 720 44.22"></polygon>
            <path d="M634.71,27.79 L646.18,16.33 C642.059526,6.32597511 632.174442,-0.0807586936 621.359932,0.243584095 C610.545422,0.567926883 601.062055,7.55554855 597.548518,17.7885285 C594.03498,28.0215084 597.225712,39.360836 605.56,46.26 L594.28,57.54 C597.358034,69.2619234 607.869482,77.4967323 619.987417,77.6795345 C632.105353,77.8623367 642.86041,69.9483386 646.290619,58.3245938 C649.720828,46.7008489 644.985655,34.2156277 634.71,27.79 L634.71,27.79 Z" id="Path" fill="#050606"></path>
            <path d="M370.13,1.21 L370.13,76.79 L385.34,76.79 L385.34,57.17 L392.06,57.17 L392.06,76.79 L429.56,76.79 L429.56,1.21 L370.13,1.21 Z M419.76,28.21 L411.48,28.21 L411.48,13.48 L419.76,13.48 L419.76,28.21 Z" id="Shape" fill="#82331C"></path>
            <path d="M50.11,36.13 C56.4555374,30.7649147 58.7759776,22.0084724 55.9200763,14.2050236 C53.0641749,6.4015749 45.6396319,1.21159554 37.33,1.21 L0,1.21 L0,76.7900114 L40.76,76.7900114 C50.7394378,76.8002497 59.401202,69.9115071 61.6376622,60.185895 C63.8741225,50.460283 59.091504,40.4799275 50.11,36.13 Z" id="Path" fill="#050606"></path>
            <path d="M130.090053,24 C130.090053,11.4007662 119.879233,1.18552114 107.28,1.18 L72.22,1.18 L72.22,76.79 L130.090053,76.79 L116.33,45 C124.699458,41.3767602 130.109569,33.1200499 130.090053,24 L130.090053,24 Z" id="Path" fill="#050606"></path>
            <rect id="Rectangle" fill="#050606" x="140.92" y="1.21" width="27.45" height="75.57"></rect>
            <polygon id="Path" fill="#050606" points="309.49 37.76 327.85 1.21 295.91 1.21 269.57 1.21 269.57 27.5 269.57 50.5 269.57 76.78 295.91 76.78 331.31 76.78"></polygon>
            <path d="M242.61,40.08 L242.61,34.63 L256,34.63 C253.731902,13.911357 235.463043,-1.28960495 214.677318,0.246652657 C193.891594,1.78291027 178.056017,19.504506 178.858524,40.3314697 C179.661031,61.1584335 196.81333,77.6089367 217.65564,77.5413869 C238.497949,77.47342 255.542926,60.9117414 256.21,40.08 L242.61,40.08 Z" id="Path" fill="#050606"></path>
        </g>
    </g>
</svg>